<?xml version="1.0" encoding="UTF-8"?>
<svg width="242px" height="159px" viewBox="0 0 242 159" version="1.1" xmlns="http://www.w3.org/2000/svg" xmlns:xlink="http://www.w3.org/1999/xlink">
    <!-- Generator: Sketch 50.2 (55047) - http://www.bohemiancoding.com/sketch -->
    <title>Group</title>
    <desc>Created with Sketch.</desc>
    <defs></defs>
    <g id="Page-1" stroke="none" stroke-width="1" fill="none" fill-rule="evenodd">
        <g id="Artboard-Copy-8" transform="translate(-519.000000, -70.000000)" fill="#FFC107">
            <g id="Group" transform="translate(519.000000, 70.000000)">
                <path d="M6.46900906,158.575925 C5.61615661,158.575925 4.85352115,158.502122 4.1810798,158.354513 C3.50863844,158.206904 2.77060413,158.010095 1.9669547,157.764079 C1.47492445,157.583668 1.10590729,157.485264 0.859892158,157.468863 L1.05670328,153.016011 L2.63119223,153.016011 L3.04941586,156.214192 C3.32823301,156.476608 3.78335417,156.710319 4.414793,156.915332 C5.04623183,157.120344 5.73916405,157.222849 6.49361045,157.222849 C7.74008711,157.222849 8.68723115,156.944036 9.33507099,156.386402 C9.98291083,155.828767 10.3068259,155.057932 10.3068259,154.073871 C10.3068259,153.434232 10.1305177,152.884806 9.77789601,152.425578 C9.42527432,151.96635 8.95785259,151.572731 8.37561678,151.244711 C7.79338097,150.916691 6.9938438,150.531273 5.97698126,150.088446 C5.05852478,149.678421 4.2589876,149.260201 3.57834574,148.833775 C2.89770389,148.407349 2.30727643,147.837422 1.80704567,147.123978 C1.30681491,146.410534 1.05670328,145.553595 1.05670328,144.553133 C1.05670328,143.651078 1.29861453,142.84334 1.78244428,142.129896 C2.26627403,141.416452 2.96330645,140.854726 3.87356242,140.444701 C4.7838184,140.034676 5.84576778,139.829666 7.05944242,139.829666 C7.81388882,139.829666 8.48221989,139.887069 9.0644557,140.001876 C9.6466915,140.116683 10.3068222,140.27249 11.0448676,140.469302 C11.3728878,140.584109 11.6517007,140.657913 11.8813148,140.690715 L11.7337065,144.823748 L10.2330217,144.823748 L9.74099392,141.797777 C9.57698383,141.633767 9.23666801,141.47796 8.72003624,141.330351 C8.20340447,141.182742 7.64167835,141.108938 7.03484103,141.108938 C5.90317143,141.108938 5.04623159,141.34675 4.46399578,141.822379 C3.88175998,142.298008 3.59064644,142.98684 3.59064644,143.888896 C3.59064644,144.544936 3.76695464,145.094361 4.11957632,145.537189 C4.47219801,145.980016 4.91091841,146.357233 5.43575068,146.668853 C5.96058296,146.980472 6.79702185,147.406892 7.94509246,147.948125 C9.01115802,148.456556 9.88039843,148.915778 10.5528398,149.325803 C11.2252811,149.735828 11.803408,150.272953 12.2872378,150.937194 C12.7710675,151.601435 13.0129788,152.392771 13.0129788,153.311228 C13.0129788,154.180481 12.7710675,155.01692 12.2872378,155.82057 C11.803408,156.624219 11.0653737,157.28435 10.0731127,157.800982 C9.08085166,158.317613 7.8794958,158.575925 6.46900906,158.575925 Z M23.247157,158.575925 C21.443046,158.575925 19.9054745,158.186407 18.6343964,157.407359 C17.3633182,156.628311 16.3997734,155.533561 15.7437331,154.123074 C15.0876927,152.712587 14.7596775,151.05611 14.7596775,149.153593 C14.7596775,147.31668 15.1450954,145.693005 15.9159428,144.282518 C16.6867902,142.872031 17.7446394,141.77728 19.0895221,140.998232 C20.4344048,140.219184 21.943275,139.829666 23.6161778,139.829666 C24.8790555,139.829666 26.396126,140.026475 28.167435,140.4201 L28.9792808,140.567708 L28.7332669,144.995958 L27.0849738,144.995958 L26.4699391,141.871582 C26.2403249,141.674769 25.8426065,141.506662 25.2767717,141.367253 C24.7109369,141.227845 24.0180046,141.158141 23.1979542,141.158141 C22.1482897,141.158141 21.2134462,141.457455 20.3933958,142.056092 C19.5733453,142.654729 18.9296154,143.53627 18.4621866,144.700741 C17.9947579,145.865213 17.761047,147.259278 17.761047,148.882978 C17.761047,150.424673 17.9660566,151.826938 18.3760818,153.089815 C18.786107,154.352693 19.409336,155.35724 20.2457874,156.103486 C21.0822389,156.849732 22.1154869,157.222849 23.3455625,157.222849 C24.214816,157.222849 24.8831471,157.149045 25.3505758,157.001436 C25.8180046,156.853827 26.2157231,156.640617 26.5437432,156.3618 L27.5770016,153.950864 L29.1268892,154.147675 L28.5364558,157.641073 C28.1920346,157.657474 27.683611,157.772279 27.0111696,157.985492 C26.4207333,158.165903 25.8508068,158.30941 25.301373,158.416016 C24.7519393,158.522623 24.0672074,158.575925 23.247157,158.575925 Z M33.2353213,141.551764 L31.2918115,141.256547 L31.2918115,140.026477 L37.9833896,140.026477 L37.9833896,141.256547 L35.86767,141.551764 L35.86767,148.169537 L44.5273593,148.169537 L44.5273593,141.551764 L42.5346467,141.256547 L42.5346467,140.026477 L49.1278192,140.026477 L49.1278192,141.256547 L47.1843094,141.551764 L47.1843094,156.853828 L49.1278192,157.099842 L49.1278192,158.30531 L42.5100453,158.30531 L42.5100453,157.099842 L44.5273593,156.853828 L44.5273593,149.694824 L35.86767,149.694824 L35.86767,156.853828 L38.0079909,157.099842 L38.0079909,158.30531 L31.2426087,158.30531 L31.2426087,157.099842 L33.2353213,156.853828 L33.2353213,141.551764 Z M58.9683752,158.575925 C57.2954723,158.575925 55.8809065,158.190507 54.7246354,157.41966 C53.5683643,156.648813 52.6950237,155.562262 52.1045874,154.159976 C51.5141511,152.75769 51.2189373,151.129914 51.2189373,149.2766 C51.2189373,147.390484 51.5756539,145.734007 52.2890978,144.307119 C53.0025417,142.880231 53.9824872,141.77728 55.2289639,140.998232 C56.4754405,140.219184 57.8777057,139.829666 59.4358016,139.829666 C61.9943589,139.829666 63.9501498,140.637404 65.3032331,142.252903 C66.6563163,143.868402 67.3328477,146.103006 67.3328477,148.956782 C67.3328477,150.8757 66.9679308,152.560878 66.2380859,154.012368 C65.508241,155.463857 64.5077945,156.587309 63.2367163,157.382758 C61.9656381,158.178207 60.542872,158.575925 58.9683752,158.575925 Z M59.2881932,141.108938 C57.6972954,141.108938 56.442637,141.801871 55.5241806,143.187756 C54.6057241,144.573641 54.1465027,146.603236 54.1465027,149.2766 C54.1465027,151.736751 54.5934235,153.684342 55.4872785,155.11943 C56.3811335,156.554518 57.6316916,157.272052 59.2389904,157.272052 C60.8134873,157.272052 62.0640454,156.558619 62.9907024,155.131731 C63.9173594,153.704843 64.3806809,151.654748 64.3806809,148.981383 C64.3806809,146.504831 63.9378603,144.573641 63.0522059,143.187756 C62.1665514,141.801871 60.9118931,141.108938 59.2881932,141.108938 Z M76.7305787,158.575925 C75.0576758,158.575925 73.64311,158.190507 72.4868389,157.41966 C71.3305678,156.648813 70.4572272,155.562262 69.8667909,154.159976 C69.2763546,152.75769 68.9811409,151.129914 68.9811409,149.2766 C68.9811409,147.390484 69.3378574,145.734007 70.0513013,144.307119 C70.7647452,142.880231 71.7446908,141.77728 72.9911674,140.998232 C74.2376441,140.219184 75.6399093,139.829666 77.1980051,139.829666 C79.7565624,139.829666 81.7123534,140.637404 83.0654366,142.252903 C84.4185198,143.868402 85.0950513,146.103006 85.0950513,148.956782 C85.0950513,150.8757 84.7301343,152.560878 84.0002894,154.012368 C83.2704445,155.463857 82.269998,156.587309 80.9989198,157.382758 C79.7278417,158.178207 78.3050755,158.575925 76.7305787,158.575925 Z M77.0503967,141.108938 C75.4594989,141.108938 74.2048406,141.801871 73.2863841,143.187756 C72.3679276,144.573641 71.9087063,146.603236 71.9087063,149.2766 C71.9087063,151.736751 72.355627,153.684342 73.249482,155.11943 C74.143337,156.554518 75.3938951,157.272052 77.001194,157.272052 C78.5756908,157.272052 79.8262489,156.558619 80.7529059,155.131731 C81.6795629,153.704843 82.1428845,151.654748 82.1428845,148.981383 C82.1428845,146.504831 81.7000639,144.573641 80.8144094,143.187756 C79.9287549,141.801871 78.6740966,141.108938 77.0503967,141.108938 Z M89.1296792,141.551764 L87.1369666,141.256547 L87.1369666,140.026477 L94.1975655,140.026477 L94.1975655,141.256547 L91.7620279,141.551764 L91.7620279,156.853828 L98.1091865,156.632416 L99.5606685,152.499382 L101.061353,152.720795 L100.200305,158.30531 L87.0877638,158.30531 L87.0877638,157.099842 L89.1296792,156.853828 L89.1296792,141.551764 Z M111.369336,141.551764 L108.687784,141.256547 L108.687784,140.026477 L115.207153,140.026477 L118.675948,151.097103 L119.487794,154.221479 L120.225836,151.097103 L123.670031,140.026477 L130.140196,140.026477 L130.140196,141.256547 L127.434043,141.551764 L129.402155,156.829227 L131.542475,157.099842 L131.542475,158.30531 L124.457275,158.30531 L124.457275,157.099842 L126.696002,156.853828 L125.588939,145.807804 L125.07231,141.059736 L124.039052,144.602336 L119.930619,157.468863 L118.331529,157.468863 L114.346104,145.684797 L112.894622,141.035134 L112.451797,145.807804 L111.467741,156.853828 L113.903279,157.099842 L113.903279,158.30531 L107.482316,158.30531 L107.482316,157.099842 L109.573434,156.853828 L111.369336,141.551764 Z M134.863663,141.551764 L132.846349,141.256547 L132.846349,140.026477 L145.368457,140.026477 L145.712876,143.839693 L144.310597,143.839693 L143.597156,141.453358 L137.496012,141.30575 L137.496012,148.243342 L141.604444,148.169537 L141.948863,146.127622 L143.30194,146.127622 L143.30194,151.785942 L141.948863,151.785942 L141.604444,149.670222 L137.496012,149.596418 L137.496012,156.927632 L144.433604,156.681618 L145.737477,153.581843 L147.188959,154.024668 L146.475519,158.30531 L132.821748,158.30531 L132.821748,157.099842 L134.863663,156.853828 L134.863663,141.551764 Z M154.839992,158.575925 C153.987139,158.575925 153.224504,158.502122 152.552062,158.354513 C151.879621,158.206904 151.141587,158.010095 150.337937,157.764079 C149.845907,157.583668 149.47689,157.485264 149.230875,157.468863 L149.427686,153.016011 L151.002175,153.016011 L151.420398,156.214192 C151.699216,156.476608 152.154337,156.710319 152.785776,156.915332 C153.417214,157.120344 154.110147,157.222849 154.864593,157.222849 C156.11107,157.222849 157.058214,156.944036 157.706054,156.386402 C158.353893,155.828767 158.677809,155.057932 158.677809,154.073871 C158.677809,153.434232 158.5015,152.884806 158.148879,152.425578 C157.796257,151.96635 157.328835,151.572731 156.746599,151.244711 C156.164364,150.916691 155.364826,150.531273 154.347964,150.088446 C153.429507,149.678421 152.62997,149.260201 151.949328,148.833775 C151.268687,148.407349 150.678259,147.837422 150.178028,147.123978 C149.677798,146.410534 149.427686,145.553595 149.427686,144.553133 C149.427686,143.651078 149.669597,142.84334 150.153427,142.129896 C150.637257,141.416452 151.334289,140.854726 152.244545,140.444701 C153.154801,140.034676 154.21675,139.829666 155.430425,139.829666 C156.184871,139.829666 156.853203,139.887069 157.435438,140.001876 C158.017674,140.116683 158.677805,140.27249 159.41585,140.469302 C159.74387,140.584109 160.022683,140.657913 160.252297,140.690715 L160.104689,144.823748 L158.604004,144.823748 L158.111977,141.797777 C157.947966,141.633767 157.607651,141.47796 157.091019,141.330351 C156.574387,141.182742 156.012661,141.108938 155.405824,141.108938 C154.274154,141.108938 153.417214,141.34675 152.834978,141.822379 C152.252743,142.298008 151.961629,142.98684 151.961629,143.888896 C151.961629,144.544936 152.137937,145.094361 152.490559,145.537189 C152.843181,145.980016 153.281901,146.357233 153.806733,146.668853 C154.331566,146.980472 155.168004,147.406892 156.316075,147.948125 C157.382141,148.456556 158.251381,148.915778 158.923822,149.325803 C159.596264,149.735828 160.174391,150.272953 160.65822,150.937194 C161.14205,151.601435 161.383961,152.392771 161.383961,153.311228 C161.383961,154.180481 161.14205,155.01692 160.65822,155.82057 C160.174391,156.624219 159.436356,157.28435 158.444095,157.800982 C157.451834,158.317613 156.250478,158.575925 154.839992,158.575925 Z M169.453217,158.575925 C168.600365,158.575925 167.837729,158.502122 167.165288,158.354513 C166.492847,158.206904 165.754812,158.010095 164.951163,157.764079 C164.459133,157.583668 164.090116,157.485264 163.8441,157.468863 L164.040912,153.016011 L165.6154,153.016011 L166.033624,156.214192 C166.312441,156.476608 166.767562,156.710319 167.399001,156.915332 C168.03044,157.120344 168.723372,157.222849 169.477819,157.222849 C170.724295,157.222849 171.671439,156.944036 172.319279,156.386402 C172.967119,155.828767 173.291034,155.057932 173.291034,154.073871 C173.291034,153.434232 173.114726,152.884806 172.762104,152.425578 C172.409483,151.96635 171.942061,151.572731 171.359825,151.244711 C170.777589,150.916691 169.978052,150.531273 168.96119,150.088446 C168.042733,149.678421 167.243196,149.260201 166.562554,148.833775 C165.881912,148.407349 165.291485,147.837422 164.791254,147.123978 C164.291023,146.410534 164.040912,145.553595 164.040912,144.553133 C164.040912,143.651078 164.282823,142.84334 164.766653,142.129896 C165.250482,141.416452 165.947515,140.854726 166.857771,140.444701 C167.768027,140.034676 168.829976,139.829666 170.043651,139.829666 C170.798097,139.829666 171.466428,139.887069 172.048664,140.001876 C172.6309,140.116683 173.29103,140.27249 174.029076,140.469302 C174.357096,140.584109 174.635909,140.657913 174.865523,140.690715 L174.717915,144.823748 L173.21723,144.823748 L172.725202,141.797777 C172.561192,141.633767 172.220876,141.47796 171.704244,141.330351 C171.187613,141.182742 170.625887,141.108938 170.019049,141.108938 C168.88738,141.108938 168.03044,141.34675 167.448204,141.822379 C166.865968,142.298008 166.574855,142.98684 166.574855,143.888896 C166.574855,144.544936 166.751163,145.094361 167.103785,145.537189 C167.456406,145.980016 167.895127,146.357233 168.419959,146.668853 C168.944791,146.980472 169.78123,147.406892 170.929301,147.948125 C171.995366,148.456556 172.864607,148.915778 173.537048,149.325803 C174.209489,149.735828 174.787616,150.272953 175.271446,150.937194 C175.755276,151.601435 175.997187,152.392771 175.997187,153.311228 C175.997187,154.180481 175.755276,155.01692 175.271446,155.82057 C174.787616,156.624219 174.049582,157.28435 173.057321,157.800982 C172.06506,158.317613 170.863704,158.575925 169.453217,158.575925 Z M184.066443,139.878869 L186.772596,139.878869 L192.750734,156.853828 L194.27602,157.099842 L194.27602,158.30531 L187.781253,158.30531 L187.781253,157.099842 L189.823168,156.853828 L188.666903,153.212822 L181.483297,153.212822 L180.327032,156.853828 L182.442751,157.099842 L182.442751,158.30531 L176.612222,158.30531 L176.612222,157.099842 L178.137508,156.853828 L184.066443,139.878869 Z M185.61633,143.815091 L185.001296,141.650169 L184.410862,143.864294 L181.926122,151.76134 L188.199476,151.76134 L185.61633,143.815091 Z M203.550744,158.575925 C201.779435,158.575925 200.250064,158.182307 198.962585,157.395059 C197.675105,156.60781 196.69516,155.52126 196.022718,154.135374 C195.350277,152.749489 195.014061,151.179116 195.014061,149.424208 C195.014061,147.406884 195.41178,145.676604 196.207229,144.233315 C197.002678,142.790026 198.105629,141.695275 199.516116,140.949029 C200.926603,140.202784 202.533877,139.829666 204.337988,139.829666 C205.99449,139.829666 207.905179,140.083878 210.070112,140.592309 L209.8487,144.84835 L208.102001,144.84835 L207.511568,141.896183 C207.281953,141.715772 206.892435,141.543564 206.343001,141.379554 C205.793568,141.215544 205.059634,141.13354 204.141177,141.13354 C202.943903,141.13354 201.886054,141.428754 200.967598,142.01919 C200.049141,142.609626 199.331608,143.487067 198.814976,144.651539 C198.298344,145.81601 198.040032,147.226476 198.040032,148.882978 C198.040032,150.408272 198.249142,151.802336 198.667368,153.065214 C199.085594,154.328092 199.725223,155.340839 200.586276,156.103486 C201.447329,156.866133 202.501078,157.24745 203.747555,157.24745 C204.534803,157.24745 205.281038,157.153146 205.986281,156.964534 C206.691525,156.775923 207.23275,156.525811 207.609973,156.214192 L207.609973,150.728082 L204.510198,150.482068 L204.510198,149.030586 L211.693804,149.030586 L211.693804,150.482068 L210.266923,150.703481 L210.266923,157.321254 C209.906101,157.337655 209.307473,157.477062 208.471022,157.739478 C207.618169,158.001894 206.814532,158.206904 206.060086,158.354513 C205.305639,158.502122 204.4692,158.575925 203.550744,158.575925 Z M215.33481,141.551764 L213.317496,141.256547 L213.317496,140.026477 L225.839603,140.026477 L226.184022,143.839693 L224.781743,143.839693 L224.068303,141.453358 L217.967158,141.30575 L217.967158,148.243342 L222.07559,148.169537 L222.42001,146.127622 L223.773086,146.127622 L223.773086,151.785942 L222.42001,151.785942 L222.07559,149.670222 L217.967158,149.596418 L217.967158,156.927632 L224.90475,156.681618 L226.208624,153.581843 L227.660106,154.024668 L226.946666,158.30531 L213.292894,158.30531 L213.292894,157.099842 L215.33481,156.853828 L215.33481,141.551764 Z M235.311138,158.575925 C234.458286,158.575925 233.69565,158.502122 233.023209,158.354513 C232.350768,158.206904 231.612733,158.010095 230.809084,157.764079 C230.317054,157.583668 229.948036,157.485264 229.702021,157.468863 L229.898832,153.016011 L231.473321,153.016011 L231.891545,156.214192 C232.170362,156.476608 232.625483,156.710319 233.256922,156.915332 C233.888361,157.120344 234.581293,157.222849 235.33574,157.222849 C236.582216,157.222849 237.52936,156.944036 238.1772,156.386402 C238.82504,155.828767 239.148955,155.057932 239.148955,154.073871 C239.148955,153.434232 238.972647,152.884806 238.620025,152.425578 C238.267403,151.96635 237.799982,151.572731 237.217746,151.244711 C236.63551,150.916691 235.835973,150.531273 234.81911,150.088446 C233.900654,149.678421 233.101117,149.260201 232.420475,148.833775 C231.739833,148.407349 231.149405,147.837422 230.649175,147.123978 C230.148944,146.410534 229.898832,145.553595 229.898832,144.553133 C229.898832,143.651078 230.140744,142.84334 230.624573,142.129896 C231.108403,141.416452 231.805436,140.854726 232.715691,140.444701 C233.625947,140.034676 234.687897,139.829666 235.901571,139.829666 C236.656018,139.829666 237.324349,139.887069 237.906585,140.001876 C238.488821,140.116683 239.148951,140.27249 239.886997,140.469302 C240.215017,140.584109 240.49383,140.657913 240.723444,140.690715 L240.575836,144.823748 L239.075151,144.823748 L238.583123,141.797777 C238.419113,141.633767 238.078797,141.47796 237.562165,141.330351 C237.045534,141.182742 236.483807,141.108938 235.87697,141.108938 C234.7453,141.108938 233.888361,141.34675 233.306125,141.822379 C232.723889,142.298008 232.432776,142.98684 232.432776,143.888896 C232.432776,144.544936 232.609084,145.094361 232.961705,145.537189 C233.314327,145.980016 233.753047,146.357233 234.27788,146.668853 C234.802712,146.980472 235.639151,147.406892 236.787222,147.948125 C237.853287,148.456556 238.722527,148.915778 239.394969,149.325803 C240.06741,149.735828 240.645537,150.272953 241.129367,150.937194 C241.613197,151.601435 241.855108,152.392771 241.855108,153.311228 C241.855108,154.180481 241.613197,155.01692 241.129367,155.82057 C240.645537,156.624219 239.907503,157.28435 238.915242,157.800982 C237.922981,158.317613 236.721625,158.575925 235.311138,158.575925 Z" id="SCHOOL-MESSAGES-Copy"></path>
                <path d="M165.069519,80.1870711 C165.069519,103.896967 123.935621,122.022068 122.181258,122.774644 C121.972723,122.878766 121.722923,122.916988 121.501077,122.916988 C121.250834,122.916988 121.024107,122.878766 120.79738,122.774644 C119.065202,122.022068 77.9210985,103.896967 77.9210985,80.1870711 L77.9210985,22.2650369 C77.9210985,21.3305767 78.6886875,20.5599876 79.637747,20.5599876 C113.912594,20.5599876 119.85187,7.6330685 119.897126,7.4951181 C120.177097,6.86379732 120.79738,6.45126412 121.482885,6.45126412 L121.512613,6.45126412 C122.218972,6.45961143 122.83748,6.88093129 123.093491,7.52323538 C123.144072,7.64273382 128.963107,20.5599876 163.362188,20.5599876 C164.311691,20.5599876 165.069519,21.3305767 165.069519,22.2650369 L165.069519,80.1870711 Z M167.110071,15.5537784 C129.636098,15.5537784 123.288939,1.33531046 123.233681,1.20208447 C122.953604,0.506811346 122.285203,0.0401419031 121.516125,0.0170544449 L121.477142,0.0170544449 C120.733801,0.0170544449 120.049883,0.482966922 119.757315,1.16991342 C119.702057,1.31979266 113.221672,15.5537784 75.882061,15.5537784 C74.8518305,15.5537784 74.0176541,16.4065004 74.0176541,17.4299182 L74.0176541,81.1706056 C74.0176541,107.259433 118.84555,127.203212 120.737208,128.040038 C120.990791,128.150555 121.230749,128.197487 121.500229,128.197487 C121.743972,128.197487 122.005504,128.150555 122.242056,128.040038 C124.156801,127.203212 168.977127,107.259433 168.977127,81.1706056 L168.977127,17.4299182 C168.972964,16.4065004 168.140301,15.5537784 167.110071,15.5537784 Z" id="Fill-46-Copy"></path>
                <path d="M113.666925,113.625753 C112.082729,112.778815 110.312167,111.788533 108.440209,110.667339 L121.163469,103.127629 L121.163469,97.8288683 L104.105541,107.93727 C102.560012,106.91266 100.991332,105.81366 99.4401524,104.646218 L121.163469,91.7731416 L121.163469,86.4743807 L95.6370317,101.601159 C94.2563573,100.421157 92.9194391,99.1869282 91.6583542,97.9031667 L121.163469,80.4186539 L121.163469,75.119893 L88.5586873,94.4412454 C87.4418946,93.0599224 86.4311297,91.6321568 85.5595294,90.1627974 L121.163469,69.0641663 L121.163469,63.7654054 L83.5515859,86.0539289 C82.8927006,84.336023 82.444219,82.5719067 82.2520493,80.7682979 L121.163469,57.7096786 L121.163469,52.4109177 L82.1462944,75.5322066 L82.1462944,69.4764799 L121.163469,46.355191 L121.163469,41.0564301 L82.1462944,64.177719 L82.1462944,58.1219922 L121.163469,35.0007033 L121.163469,29.7019424 L82.1462944,52.8232313 L82.1462944,46.7675046 L121.163469,23.6462156 L121.163469,18.3474547 L82.1462944,41.4687437 L82.1462944,35.4130169 L102.601727,23.291279 C116.886869,19.9969918 119.863239,13.5121501 119.89358,13.4196637 C120.145346,12.8519433 120.70314,12.4809694 121.319587,12.4809694 L121.34632,12.4809694 C121.981519,12.4884758 122.537718,12.8673512 122.767938,13.4449484 C122.813423,13.5524083 128.046237,25.1683542 158.979892,25.1683542 C159.833741,25.1683542 160.515223,25.8613128 160.515223,26.7016338 L160.515223,78.7884961 C160.515223,100.109813 123.525229,116.408958 121.947605,117.085719 C121.760077,117.179351 121.535443,117.213723 121.335946,117.213723 C121.110913,117.213723 120.907027,117.179351 120.70314,117.085719 C120.502294,116.998457 119.712214,116.651466 118.488191,116.067467 L121.163469,114.482117 L121.163469,109.183356 L113.666925,113.625753 Z M82.1462944,30.114256 L82.1462944,26.7016338 C82.1462944,25.8613128 82.8365551,25.1683542 83.6900046,25.1683542 C86.2594895,25.1683542 88.6518866,25.0875653 90.8788881,24.9393856 L82.1462944,30.114256 Z M140.460316,37.0251484 C140.33813,37.0777636 139.892159,37.2014805 139.856389,36.9244027 C139.815478,36.6069611 140.193083,36.6449184 140.193083,36.6449184 C140.483287,36.6396679 140.708953,36.4246126 140.708953,36.4246126 C140.757411,36.6287291 140.644524,36.945952 140.460316,37.0251484 M133.02188,77.4241843 C132.67091,77.3830547 132.337245,77.3277672 132.020881,77.2583215 C131.244988,77.0880034 130.393409,76.8609159 129.466122,76.5770523 C128.898394,76.3688856 128.472605,76.2553419 128.188742,76.2364176 L128.415832,71.098512 L130.23255,71.098512 L130.715115,74.7887205 C131.036827,75.0915083 131.561967,75.3611747 132.29055,75.5977277 C132.587491,75.6941368 132.896216,75.7708995 133.21673,75.8280159 L133.468579,73.7649242 L131.016009,73.4697075 L131.016009,72.061751 L138.10121,72.061751 L138.671594,74.1228028 C138.949899,73.6131705 139.08905,73.0119447 139.08905,72.3191194 C139.08905,71.581074 138.885617,70.9471215 138.478746,70.4172427 C138.071875,69.887364 137.532542,69.433189 136.860732,69.0547042 C136.188921,68.6762194 135.266378,68.2315064 134.093075,67.7205519 C133.033318,67.2474459 132.110775,66.764885 131.325419,66.2728547 C130.540063,65.7808245 129.858801,65.123217 129.281611,64.3000125 C128.704422,63.476808 128.415832,62.4880313 128.415832,61.3336526 C128.415832,60.2928194 128.69496,59.3608145 129.253225,58.53761 C129.81149,57.7144055 130.615758,57.06626 131.666054,56.593154 C132.716349,56.120048 133.941675,55.8834985 135.342069,55.8834985 C136.212584,55.8834985 136.983735,55.9497324 137.655546,56.082202 C138.327356,56.2146717 139.089046,56.3944493 139.940637,56.6215402 C140.319121,56.7540099 140.640829,56.8391677 140.905768,56.8770162 L140.735451,61.645901 L139.003891,61.645901 L138.436167,58.154396 C138.246925,57.9651536 137.854252,57.785376 137.258139,57.6150579 C136.662025,57.4447397 136.01388,57.3595819 135.313683,57.3595819 C134.00791,57.3595819 133.019133,57.6339793 132.347323,58.1827823 C131.675512,58.7315852 131.339612,59.5263914 131.339612,60.5672247 C131.339612,61.3241943 131.543045,61.9581469 131.949916,62.4691014 C132.356787,62.9800559 132.863003,63.4153069 133.468579,63.7748674 C134.074154,64.134428 135.039276,64.6264509 136.363973,65.2509508 C137.594049,65.8376023 138.597018,66.3674731 139.372912,66.8405791 C140.148806,67.3136851 140.815875,67.9334447 141.374141,68.6998765 C141.932406,69.4663082 142.211534,70.3793891 142.211534,71.4391466 C142.211534,72.4421314 141.932406,73.4072532 141.374141,74.334541 C140.895173,75.1301149 140.200299,75.8037932 139.289505,76.3555901 L140.803578,81.8266104 L141.439429,84.4835605 L141.984444,81.8266104 L144.664103,72.061751 L151.681177,72.061751 L151.681177,73.4697075 L149.205898,73.7649242 L151.022616,87.3221824 L152.862043,87.5719812 L152.862043,88.9345197 L145.61788,88.9345197 L145.61788,87.5719812 L147.61627,87.3448914 L146.617075,77.3983602 L146.185605,73.2426177 L145.345373,76.7397999 L142.052571,88.2305414 L139.64542,88.2305414 L136.306195,77.400623 C135.822659,77.4710632 135.312504,77.5086216 134.775727,77.5132986 L133.922758,87.3448914 L136.216365,87.5719812 L136.216365,88.9345197 L129.903269,88.9345197 L129.903269,87.5719812 L131.810823,87.3448914 L133.02188,77.4241843 Z M134.904409,75.9500948 C135.246993,75.9421639 135.568995,75.9150615 135.870415,75.8687875 L135.126334,73.2426177 L134.904409,75.9500948 Z M142.701003,35.6185383 C145.36666,36.1916179 144.84357,39.2871663 144.693053,39.2800561 C144.542537,39.2730553 144.621405,38.7569665 144.370689,38.3915039 C144.119865,38.0260412 143.560896,37.9973818 143.560896,37.9973818 C144.435118,38.6349998 144.771812,40.498192 144.277492,42.0674607 C143.782952,43.6367295 142.013067,43.5149816 142.013067,43.5149816 C142.013067,43.5149816 142.772652,42.3541646 143.188323,41.8526243 C143.603995,41.3511934 143.489138,40.351285 143.446149,39.9500527 C143.40316,39.5488205 143.127394,39.4340733 143.127394,39.4340733 C143.170274,40.756127 143.138005,41.1323096 142.203073,42.4544727 C141.267921,43.7765264 141.3539,44.3317758 141.3539,44.3317758 C141.3539,44.3317758 140.393808,43.6438397 140.250402,42.5260119 C140.107104,41.4081841 141.898429,40.2760266 141.898429,40.2760266 C140.752051,40.4192144 139.849169,41.6946692 139.791851,42.5115728 C139.734532,43.3284764 140.040706,44.1955887 140.040706,44.1955887 C136.814331,43.3786851 138.989277,40.9065344 138.989277,40.9065344 C137.764031,41.3365355 137.914547,42.8628151 137.914547,42.8628151 C137.31259,42.9165242 136.81816,43.4216743 136.81816,43.4216743 C136.882589,41.3150956 138.731342,40.2188171 139.089694,40.1040699 C139.447937,39.9895415 139.619785,39.7745956 139.185189,39.8174754 C138.750484,39.860574 138.34433,39.5881998 138.33,39.2065479 C138.315561,38.8250054 138.752891,38.8429449 138.817211,39.0364508 C138.881749,39.2298474 139.397729,39.2943858 139.763191,39.0364508 C140.128654,38.7784064 140.064115,38.2410965 139.956697,38.112129 C139.849169,37.9830521 139.526696,37.9400629 139.032266,37.9400629 C138.537836,37.9400629 138.473297,38.2840856 138.473297,38.2840856 C138.140104,38.2732563 137.925158,37.7681062 137.914547,37.6176988 C137.903718,37.467182 137.80691,37.1769778 138.129384,36.8867735 C138.451857,36.5964599 139.376289,36.6502784 139.558965,36.6180092 C139.741642,36.58574 139.763191,36.4246126 139.999686,36.1988374 C140.235963,35.9731716 140.923899,35.9623423 140.923899,35.9623423 C141.210493,35.3748237 142.701003,35.6185383 142.701003,35.6185383 Z M142.235298,36.8509164 C142.235298,36.8509164 142.600651,36.8939056 142.629311,37.1806094 C142.65797,37.4672039 142.400145,37.6248309 142.256738,37.7108092 C142.113441,37.7968969 142.228079,38.0405022 142.572101,37.8828753 C142.916015,37.7251389 143.145181,37.273698 143.001993,36.9297846 C142.90256,36.6913205 142.546833,36.3976159 142.134334,36.4837036 C141.721835,36.5697913 141.816017,36.9333944 142.235298,36.8509164 Z M137.44159,40.7919513 C136.610247,41.2502837 136.481389,42.8843097 136.481389,42.8843097 C135.478309,42.9845083 135.334793,42.4687477 135.334793,42.4687477 C135.334793,42.4687477 135.764794,42.4687477 135.779233,42.3827694 C135.793562,42.296791 135.850772,42.2252518 135.320572,42.1536032 C134.790372,42.0820639 134.44635,41.522986 134.532328,41.6089643 C134.618306,41.6949426 134.890681,41.594744 134.90501,41.4227873 C134.919121,41.2507212 134.790372,41.2219524 134.159755,41.0787645 C133.529138,40.9354673 133.303472,40.3798897 133.303472,40.3798897 C133.582957,40.4981373 133.840892,40.1756638 133.787182,39.9501074 C133.733364,39.7243322 133.561298,39.6168046 133.367901,39.6383539 C133.174505,39.6596844 133.142235,39.8961795 133.142235,39.8961795 C132.551107,39.9284487 132.723064,39.2299021 132.787493,39.1116545 C132.852031,38.9934069 133.023988,39.0363961 133.195945,39.0256762 C133.367901,39.0149562 133.238934,38.7032027 133.077588,38.6065044 C132.91646,38.5096967 132.626256,38.9719671 132.626256,38.9719671 C132.217914,38.6065044 132.787493,37.9293976 133.131516,37.9347576 C133.475429,37.9401176 133.787182,38.3485694 133.787182,38.3485694 C133.787182,38.3485694 133.894491,38.0582558 133.840892,37.9347576 C133.787182,37.8111501 133.529138,37.8861897 133.529138,37.8861897 C133.572127,37.6606333 134.174085,37.5853749 134.546111,37.6929025 C134.918246,37.8003208 135.066138,38.4344384 134.829642,38.456097 C134.593257,38.4775369 134.575317,38.6711523 134.546658,39.0723845 C134.517889,39.4735074 135.807673,40.5053568 136.323653,40.6630932 C136.839632,40.8208295 137.44159,40.7919513 137.44159,40.7919513 Z M140.579953,44.0666212 C140.709029,44.5393927 141.826748,44.8942448 141.826748,44.8942448 C141.68706,44.6577497 141.775336,43.8514566 141.775336,43.8514566 C141.775336,43.8514566 142.170771,43.885476 142.385716,43.8873356 C142.553079,43.888867 143.073543,43.801576 143.073543,43.801576 C143.073543,43.801576 143.20262,44.9767227 143.474885,45.4496036 C143.747259,45.9225939 146.24074,47.7138093 146.584763,48.1152603 C146.928676,48.5166019 146.928676,48.9894828 147.25826,49.4623637 C147.587953,49.9352445 148.347538,49.8778162 148.318769,48.9608233 C148.29,48.0436117 147.043314,46.9256745 146.154762,46.0945505 C145.266319,45.2633172 145.115802,44.303007 145.22322,43.2818774 C145.330748,42.2608573 146.405587,42.09973 147.082693,42.4973524 C147.75991,42.8950843 147.598673,44.7114588 147.716811,44.937234 C147.835059,45.1628997 148.093103,45.0446522 148.093103,45.0446522 C148.060834,45.2489875 147.577124,45.7755775 146.899907,45.2489875 C146.222801,44.7222881 146.090223,43.5363121 146.090223,43.3070365 C146.090223,43.0776515 145.860948,43.1135305 145.767859,43.2569372 C145.674552,43.4003438 145.667551,44.1598191 145.72487,44.5897108 C145.782298,45.0197119 147.007544,45.9369236 147.75991,46.5816517 C148.512275,47.2267081 149.092574,48.0650516 149.135672,48.989264 C149.178662,49.9136952 148.555264,50.5800821 147.824339,50.6660604 C147.093413,50.7520388 146.685071,50.3077079 146.584872,50.2647188 C146.484564,50.2217296 146.427027,50.4510052 146.384147,50.6372916 C146.341048,50.823578 145.939925,51.1102818 145.452605,51.4972937 C144.965285,51.8841963 145.137242,52.2424394 145.266319,52.4574946 C145.395287,52.6725498 145.896936,53.0594524 146.298168,53.0307929 C146.699291,53.0023522 146.857028,52.787297 146.857028,52.787297 C147.057644,53.3891454 146.068893,54.1629504 146.19786,54.3349071 C146.326719,54.5068638 146.73878,54.3634572 146.73878,54.3634572 C146.663522,54.5999523 146.308779,55.0082947 146.093833,55.1803608 C145.878887,55.3523175 145.448996,55.3630374 145.438166,55.5672633 C145.427556,55.7714892 145.875278,55.7106699 145.875278,55.7106699 C145.638782,56.1049014 144.950956,56.2408697 144.642921,56.298298 C144.334778,56.3558356 144.110753,56.8034481 144.078483,57.1311721 C144.046324,57.4590056 143.874257,57.7062206 143.71313,57.7276605 C143.551893,57.7492098 143.481995,57.8996172 143.471384,58.0500246 C143.460555,58.2006508 143.72921,58.2865197 143.72921,58.2865197 C143.72921,58.2865197 143.535813,58.5230149 143.105812,58.3726075 C142.675921,58.2219813 142.944576,57.5772531 142.460865,57.5341546 C141.977155,57.4912748 142.031083,57.9747662 142.031083,57.9747662 C141.009954,57.4374563 141.955715,56.9142573 142.170771,56.8713775 C142.385716,56.8283883 142.314068,56.4128264 142.142111,56.2408697 C141.970154,56.068913 141.454175,56.3841669 141.454175,56.3841669 C141.554483,55.6244728 142.543343,55.3809769 142.801278,55.5099444 C143.059213,55.6389119 142.657981,56.4272655 143.087982,56.470364 C143.517874,56.5132438 144.162821,55.0801621 144.134161,54.392226 C144.105502,53.7041805 142.758399,53.3891454 142.500464,52.5291432 C142.242419,51.6692504 143.675501,50.8810063 143.654061,50.0212229 C143.632512,49.1612207 141.869846,48.537823 140.966964,47.9790732 C140.064083,47.4199952 138.67399,45.4783724 138.430385,45.4640427 C138.18667,45.4498224 138.244098,45.7506372 138.014823,46.0658911 C137.785547,46.3813638 137.441634,46.3524855 137.441634,46.3524855 C137.441634,46.3524855 137.599151,45.707648 137.412865,45.6789886 C137.226688,45.6504385 137.068842,46.0802208 136.896995,46.3094964 C136.725038,46.538772 136.223389,46.5102219 136.223389,46.5102219 C136.223389,46.5102219 136.63906,45.9512533 136.381015,45.9225939 C136.12308,45.893825 135.721848,46.6677395 135.521232,46.8683556 C135.320616,47.0688623 134.861955,46.9543339 134.861955,46.9543339 C134.861955,46.9543339 135.019692,46.8254758 135.019692,46.6534097 C135.019692,46.4814531 134.861955,46.3667059 134.532372,46.3667059 C134.202788,46.3667059 134.002063,46.4525748 134.030831,46.7393881 C134.0596,47.0260919 134.388965,47.1567002 134.388965,47.1567002 C133.299797,47.5597921 133.414544,46.4096951 133.414544,46.4096951 C132.741047,46.4814531 133.271247,47.1548407 133.271247,47.1548407 C133.08496,47.1691704 132.697948,47.1119609 132.56909,46.538772 C132.440123,45.9654736 132.984652,45.9511439 133.142279,45.893825 C133.299797,45.8366155 133.213928,45.564132 133.013202,45.4496036 C132.812586,45.3350752 132.554651,45.6502197 132.554651,45.6502197 C132.325266,45.2057795 133.056301,44.546831 133.443203,44.6041499 C133.830106,44.6616876 133.6366,45.5068131 134.324536,45.4638239 C135.012472,45.4209442 135.65731,44.8620849 136.302257,44.3317758 C136.947094,43.801576 137.541942,43.285706 137.900185,43.2999263 C138.258428,43.3141467 138.401725,43.8444558 138.960584,44.2313583 C139.519553,44.6182609 140.827058,44.733008 140.827058,44.733008 C140.643944,44.5610514 140.579953,44.0666212 140.579953,44.0666212 Z M141.117492,48.4948776 C141.117492,48.4948776 143.087993,49.3903212 143.130873,49.9923884 C143.173972,50.5942368 142.844279,50.8379515 142.471706,51.1675351 C142.099242,51.4972281 141.998825,51.7838226 141.998825,52.3283521 C141.998825,52.8727722 142.313969,52.8872113 142.313969,52.8872113 C142.100008,53.1651641 141.76944,52.7729016 141.568824,53.0308367 C141.368208,53.2886623 142.156342,53.5896959 142.156342,53.5896959 C142.013155,53.8763997 140.536974,53.6040256 140.494095,53.7187728 C140.450996,53.8335199 140.70904,54.0052578 140.70904,54.0052578 C140.2075,54.1772145 139.75234,54.1054565 139.644922,53.9227799 C139.537503,53.7401033 138.752869,53.8905107 138.572599,53.8905107 C138.392438,53.8905107 138.419676,53.9980383 138.247719,54.2989625 C138.075653,54.5999961 137.7103,54.535567 137.7103,54.535567 C137.7103,54.535567 137.828438,54.3312317 137.570503,54.2668026 C137.312568,54.2022642 137.280299,54.9439094 137.280299,54.9439094 C137.280299,54.9439094 136.979374,54.7182436 136.828967,54.3849408 C136.67845,54.0518568 136.979374,53.8153617 137.054523,53.718554 C137.129891,53.6217463 137.000814,53.525048 136.764319,53.3961899 C136.527933,53.267113 136.080102,53.6038068 136.080102,53.6038068 C135.850717,53.159476 136.438455,52.5863965 136.610411,52.557737 C136.782259,52.5289682 136.868346,52.7584625 137.154941,52.743914 C137.441535,52.7295843 137.355448,52.3140223 137.283908,52.1709439 C137.212369,52.0275373 136.725049,52.0705264 136.725049,52.0705264 C136.853907,51.7265037 137.355448,51.6765137 137.821328,51.7265037 C138.287098,51.7767124 138.193791,52.5219674 138.107922,52.5579558 C138.021944,52.5939442 137.602772,52.7296937 138.22617,53.0092874 C138.849567,53.2886623 140.322028,51.9343394 140.300589,51.5688767 C140.279039,51.2035235 139.849148,50.8165116 139.72018,50.2146632 C139.591213,49.6127054 141.117492,48.4948776 141.117492,48.4948776 Z" id="Combined-Shape-Copy"></path>
            </g>
        </g>
    </g>
</svg>